<mxfile host="app.diagrams.net" modified="2020-08-18T21:59:58.186Z" agent="5.0 (Windows NT 10.0; Win64; x64) AppleWebKit/537.36 (KHTML, like Gecko) Chrome/84.0.4147.125 Safari/537.36" etag="o1Z8ZOhx4sNxs8ohpp9-" version="13.6.3" type="github">
  <diagram id="C5RBs43oDa-KdzZeNtuy" name="Page-1">
    <mxGraphModel dx="1394" dy="886" grid="0" gridSize="10" guides="1" tooltips="1" connect="1" arrows="1" fold="1" page="1" pageScale="1" pageWidth="800" pageHeight="700" math="0" shadow="0">
      <root>
        <mxCell id="WIyWlLk6GJQsqaUBKTNV-0" />
        <mxCell id="WIyWlLk6GJQsqaUBKTNV-1" parent="WIyWlLk6GJQsqaUBKTNV-0" />
        <mxCell id="whpVxYnDkCTskXmKhdl8-56" value="" style="endArrow=block;endSize=16;endFill=0;html=1;strokeColor=#788AA3;fontColor=#46495D;curved=1;" edge="1" parent="WIyWlLk6GJQsqaUBKTNV-1" source="whpVxYnDkCTskXmKhdl8-31" target="whpVxYnDkCTskXmKhdl8-25">
          <mxGeometry width="160" relative="1" as="geometry">
            <mxPoint x="6" y="494" as="sourcePoint" />
            <mxPoint x="166" y="494" as="targetPoint" />
          </mxGeometry>
        </mxCell>
        <mxCell id="whpVxYnDkCTskXmKhdl8-57" value="" style="endArrow=block;dashed=1;endFill=0;endSize=12;html=1;strokeColor=#788AA3;fontColor=#46495D;" edge="1" parent="WIyWlLk6GJQsqaUBKTNV-1" source="whpVxYnDkCTskXmKhdl8-25" target="zkfFHV4jXpPFQw0GAbJ--0">
          <mxGeometry width="160" relative="1" as="geometry">
            <mxPoint x="56" y="424" as="sourcePoint" />
            <mxPoint x="216" y="424" as="targetPoint" />
          </mxGeometry>
        </mxCell>
        <mxCell id="whpVxYnDkCTskXmKhdl8-58" value="" style="endArrow=block;dashed=1;endFill=0;endSize=12;html=1;strokeColor=#788AA3;fontColor=#46495D;exitX=0.5;exitY=0;exitDx=0;exitDy=0;" edge="1" parent="WIyWlLk6GJQsqaUBKTNV-1" source="whpVxYnDkCTskXmKhdl8-47" target="zkfFHV4jXpPFQw0GAbJ--0">
          <mxGeometry width="160" relative="1" as="geometry">
            <mxPoint x="-74" y="294" as="sourcePoint" />
            <mxPoint x="36" y="228" as="targetPoint" />
          </mxGeometry>
        </mxCell>
        <mxCell id="whpVxYnDkCTskXmKhdl8-59" value="" style="endArrow=none;html=1;exitX=1;exitY=0.25;exitDx=0;exitDy=0;strokeColor=#788AA3;fontColor=#46495D;startArrow=classic;startFill=1;entryX=0;entryY=0.5;entryDx=0;entryDy=0;" edge="1" parent="WIyWlLk6GJQsqaUBKTNV-1" source="whpVxYnDkCTskXmKhdl8-25" target="whpVxYnDkCTskXmKhdl8-49">
          <mxGeometry width="50" height="50" relative="1" as="geometry">
            <mxPoint x="246" y="294" as="sourcePoint" />
            <mxPoint x="286" y="319" as="targetPoint" />
          </mxGeometry>
        </mxCell>
        <mxCell id="whpVxYnDkCTskXmKhdl8-64" value="" style="endArrow=none;html=1;rounded=0;strokeColor=#788AA3;fillColor=#B2C9AB;fontColor=#46495D;startArrow=ERmany;startFill=0;endSize=12;startSize=11;entryX=0;entryY=0.5;entryDx=0;entryDy=0;" edge="1" parent="WIyWlLk6GJQsqaUBKTNV-1" source="whpVxYnDkCTskXmKhdl8-47" target="whpVxYnDkCTskXmKhdl8-63">
          <mxGeometry relative="1" as="geometry">
            <mxPoint x="-84" y="292.5" as="sourcePoint" />
            <mxPoint x="506" y="354" as="targetPoint" />
          </mxGeometry>
        </mxCell>
        <mxCell id="whpVxYnDkCTskXmKhdl8-66" value="" style="endArrow=block;dashed=1;endFill=0;endSize=12;html=1;strokeColor=#788AA3;fontColor=#46495D;" edge="1" parent="WIyWlLk6GJQsqaUBKTNV-1" source="whpVxYnDkCTskXmKhdl8-61" target="zkfFHV4jXpPFQw0GAbJ--0">
          <mxGeometry width="160" relative="1" as="geometry">
            <mxPoint x="86" y="283" as="sourcePoint" />
            <mxPoint x="86" y="188" as="targetPoint" />
          </mxGeometry>
        </mxCell>
        <mxCell id="whpVxYnDkCTskXmKhdl8-70" value="" style="endArrow=none;html=1;strokeColor=#788AA3;fontColor=#46495D;startArrow=classic;startFill=1;exitX=1;exitY=0.25;exitDx=0;exitDy=0;entryX=0;entryY=0.5;entryDx=0;entryDy=0;" edge="1" parent="WIyWlLk6GJQsqaUBKTNV-1" source="whpVxYnDkCTskXmKhdl8-31" target="whpVxYnDkCTskXmKhdl8-89">
          <mxGeometry width="50" height="50" relative="1" as="geometry">
            <mxPoint x="166" y="303" as="sourcePoint" />
            <mxPoint x="286" y="466.58620689655163" as="targetPoint" />
          </mxGeometry>
        </mxCell>
        <mxCell id="whpVxYnDkCTskXmKhdl8-73" value="" style="endArrow=block;endSize=16;endFill=0;html=1;strokeColor=#788AA3;fontColor=#46495D;curved=1;" edge="1" parent="WIyWlLk6GJQsqaUBKTNV-1" source="whpVxYnDkCTskXmKhdl8-67" target="whpVxYnDkCTskXmKhdl8-47">
          <mxGeometry width="160" relative="1" as="geometry">
            <mxPoint x="96" y="434" as="sourcePoint" />
            <mxPoint x="96" y="333" as="targetPoint" />
          </mxGeometry>
        </mxCell>
        <mxCell id="whpVxYnDkCTskXmKhdl8-76" value="" style="endArrow=none;html=1;rounded=0;strokeColor=#788AA3;fillColor=#B2C9AB;fontColor=#46495D;startArrow=ERmany;startFill=0;endSize=12;startSize=11;entryX=0;entryY=0.5;entryDx=0;entryDy=0;" edge="1" parent="WIyWlLk6GJQsqaUBKTNV-1" source="whpVxYnDkCTskXmKhdl8-67" target="whpVxYnDkCTskXmKhdl8-90">
          <mxGeometry relative="1" as="geometry">
            <mxPoint x="456" y="279.8888888888889" as="sourcePoint" />
            <mxPoint x="577.7142857142858" y="396" as="targetPoint" />
          </mxGeometry>
        </mxCell>
        <mxCell id="whpVxYnDkCTskXmKhdl8-77" value="" style="endArrow=block;endSize=16;endFill=0;html=1;strokeColor=#788AA3;fontColor=#46495D;curved=1;" edge="1" parent="WIyWlLk6GJQsqaUBKTNV-1" source="whpVxYnDkCTskXmKhdl8-74" target="whpVxYnDkCTskXmKhdl8-61">
          <mxGeometry width="160" relative="1" as="geometry">
            <mxPoint x="376" y="424" as="sourcePoint" />
            <mxPoint x="376" y="342" as="targetPoint" />
          </mxGeometry>
        </mxCell>
        <mxCell id="whpVxYnDkCTskXmKhdl8-85" value="" style="endArrow=block;dashed=1;endFill=0;endSize=12;html=1;strokeColor=#788AA3;fontColor=#46495D;edgeStyle=orthogonalEdgeStyle;curved=1;" edge="1" parent="WIyWlLk6GJQsqaUBKTNV-1" source="whpVxYnDkCTskXmKhdl8-81" target="zkfFHV4jXpPFQw0GAbJ--0">
          <mxGeometry width="160" relative="1" as="geometry">
            <mxPoint x="376" y="264" as="sourcePoint" />
            <mxPoint x="376" y="168" as="targetPoint" />
            <Array as="points">
              <mxPoint x="756" y="594" />
              <mxPoint x="756" y="106" />
            </Array>
          </mxGeometry>
        </mxCell>
        <mxCell id="whpVxYnDkCTskXmKhdl8-86" value="" style="endArrow=block;dashed=1;endFill=0;endSize=12;html=1;strokeColor=#788AA3;fontColor=#46495D;" edge="1" parent="WIyWlLk6GJQsqaUBKTNV-1" source="whpVxYnDkCTskXmKhdl8-31" target="whpVxYnDkCTskXmKhdl8-81">
          <mxGeometry width="160" relative="1" as="geometry">
            <mxPoint x="149.4741784037558" y="309" as="sourcePoint" />
            <mxPoint x="314.96713615023486" y="168" as="targetPoint" />
          </mxGeometry>
        </mxCell>
        <mxCell id="whpVxYnDkCTskXmKhdl8-87" value="" style="endArrow=block;dashed=1;endFill=0;endSize=12;html=1;strokeColor=#788AA3;fontColor=#46495D;" edge="1" parent="WIyWlLk6GJQsqaUBKTNV-1" source="whpVxYnDkCTskXmKhdl8-67" target="whpVxYnDkCTskXmKhdl8-81">
          <mxGeometry width="160" relative="1" as="geometry">
            <mxPoint x="159.4741784037558" y="319" as="sourcePoint" />
            <mxPoint x="324.96713615023486" y="178" as="targetPoint" />
          </mxGeometry>
        </mxCell>
        <mxCell id="whpVxYnDkCTskXmKhdl8-88" value="" style="endArrow=block;dashed=1;endFill=0;endSize=12;html=1;strokeColor=#788AA3;fontColor=#46495D;" edge="1" parent="WIyWlLk6GJQsqaUBKTNV-1" source="whpVxYnDkCTskXmKhdl8-74" target="whpVxYnDkCTskXmKhdl8-81">
          <mxGeometry width="160" relative="1" as="geometry">
            <mxPoint x="169.4741784037558" y="329" as="sourcePoint" />
            <mxPoint x="334.96713615023486" y="188" as="targetPoint" />
          </mxGeometry>
        </mxCell>
        <mxCell id="whpVxYnDkCTskXmKhdl8-25" value="SimpleUnit" style="swimlane;fontStyle=1;align=center;verticalAlign=top;childLayout=stackLayout;horizontal=1;startSize=26;horizontalStack=0;resizeParent=1;resizeLast=0;collapsible=1;marginBottom=0;shadow=0;strokeWidth=1;spacing=0;fillColor=#B2C9AB;strokeColor=#788AA3;fontColor=#46495D;rounded=1;" vertex="1" parent="WIyWlLk6GJQsqaUBKTNV-1">
          <mxGeometry x="56" y="244" width="160" height="80" as="geometry">
            <mxRectangle x="230" y="140" width="160" height="26" as="alternateBounds" />
          </mxGeometry>
        </mxCell>
        <mxCell id="zkfFHV4jXpPFQw0GAbJ--0" value="Unit(ABC)" style="swimlane;fontStyle=3;align=center;verticalAlign=top;childLayout=stackLayout;horizontal=1;startSize=26;horizontalStack=0;resizeParent=1;resizeLast=0;collapsible=1;marginBottom=0;shadow=0;strokeWidth=1;spacing=0;fillColor=#B2C9AB;strokeColor=#788AA3;fontColor=#46495D;rounded=1;" parent="WIyWlLk6GJQsqaUBKTNV-1" vertex="1">
          <mxGeometry x="296" y="44" width="160" height="104" as="geometry">
            <mxRectangle x="230" y="140" width="160" height="26" as="alternateBounds" />
          </mxGeometry>
        </mxCell>
        <mxCell id="whpVxYnDkCTskXmKhdl8-44" value="display_name: str" style="text;strokeColor=none;fillColor=none;align=left;verticalAlign=top;spacingLeft=4;spacingRight=4;overflow=hidden;rotatable=0;points=[[0,0.5],[1,0.5]];portConstraint=eastwest;fontColor=#46495D;rounded=1;" vertex="1" parent="zkfFHV4jXpPFQw0GAbJ--0">
          <mxGeometry y="26" width="160" height="26" as="geometry" />
        </mxCell>
        <mxCell id="whpVxYnDkCTskXmKhdl8-45" value="base_unit: BaseUnit" style="text;strokeColor=none;fillColor=none;align=left;verticalAlign=top;spacingLeft=4;spacingRight=4;overflow=hidden;rotatable=0;points=[[0,0.5],[1,0.5]];portConstraint=eastwest;fontColor=#46495D;rounded=1;" vertex="1" parent="zkfFHV4jXpPFQw0GAbJ--0">
          <mxGeometry y="52" width="160" height="26" as="geometry" />
        </mxCell>
        <mxCell id="whpVxYnDkCTskXmKhdl8-46" value="factor: float" style="text;strokeColor=none;fillColor=none;align=left;verticalAlign=top;spacingLeft=4;spacingRight=4;overflow=hidden;rotatable=0;points=[[0,0.5],[1,0.5]];portConstraint=eastwest;fontColor=#46495D;rounded=1;" vertex="1" parent="zkfFHV4jXpPFQw0GAbJ--0">
          <mxGeometry y="78" width="160" height="26" as="geometry" />
        </mxCell>
        <mxCell id="whpVxYnDkCTskXmKhdl8-47" value="PoweredUnit" style="swimlane;fontStyle=1;align=center;verticalAlign=top;childLayout=stackLayout;horizontal=1;startSize=26;horizontalStack=0;resizeParent=1;resizeLast=0;collapsible=1;marginBottom=0;shadow=0;strokeWidth=1;spacing=0;fillColor=#B2C9AB;strokeColor=#788AA3;fontColor=#46495D;rounded=1;" vertex="1" parent="WIyWlLk6GJQsqaUBKTNV-1">
          <mxGeometry x="296" y="244" width="160" height="78" as="geometry">
            <mxRectangle x="230" y="140" width="160" height="26" as="alternateBounds" />
          </mxGeometry>
        </mxCell>
        <mxCell id="whpVxYnDkCTskXmKhdl8-49" value="unraised_unit: SimpleUnit" style="text;strokeColor=none;fillColor=none;align=left;verticalAlign=top;spacingLeft=4;spacingRight=4;overflow=hidden;rotatable=0;points=[[0,0.5],[1,0.5]];portConstraint=eastwest;fontColor=#46495D;rounded=1;" vertex="1" parent="whpVxYnDkCTskXmKhdl8-47">
          <mxGeometry y="26" width="160" height="26" as="geometry" />
        </mxCell>
        <mxCell id="whpVxYnDkCTskXmKhdl8-96" value="power: int" style="text;strokeColor=none;fillColor=none;align=left;verticalAlign=top;spacingLeft=4;spacingRight=4;overflow=hidden;rotatable=0;points=[[0,0.5],[1,0.5]];portConstraint=eastwest;rounded=1;fontSize=12;fontColor=#46495D;" vertex="1" parent="whpVxYnDkCTskXmKhdl8-47">
          <mxGeometry y="52" width="160" height="26" as="geometry" />
        </mxCell>
        <mxCell id="whpVxYnDkCTskXmKhdl8-67" value="PoweredBaseUnit" style="swimlane;fontStyle=1;align=center;verticalAlign=top;childLayout=stackLayout;horizontal=1;startSize=26;horizontalStack=0;resizeParent=1;resizeLast=0;collapsible=1;marginBottom=0;shadow=0;strokeWidth=1;spacing=0;fillColor=#B2C9AB;strokeColor=#788AA3;fontColor=#46495D;rounded=1;" vertex="1" parent="WIyWlLk6GJQsqaUBKTNV-1">
          <mxGeometry x="296" y="404" width="160" height="80" as="geometry">
            <mxRectangle x="230" y="140" width="160" height="26" as="alternateBounds" />
          </mxGeometry>
        </mxCell>
        <mxCell id="whpVxYnDkCTskXmKhdl8-89" value="unraised_unit: BaseUnit" style="text;strokeColor=none;fillColor=none;align=left;verticalAlign=top;spacingLeft=4;spacingRight=4;overflow=hidden;rotatable=0;points=[[0,0.5],[1,0.5]];portConstraint=eastwest;rounded=1;fontColor=#46495D;" vertex="1" parent="whpVxYnDkCTskXmKhdl8-67">
          <mxGeometry y="26" width="160" height="26" as="geometry" />
        </mxCell>
        <mxCell id="whpVxYnDkCTskXmKhdl8-31" value="SimpleBaseUnit" style="swimlane;fontStyle=1;align=center;verticalAlign=top;childLayout=stackLayout;horizontal=1;startSize=26;horizontalStack=0;resizeParent=1;resizeLast=0;collapsible=1;marginBottom=0;shadow=0;strokeWidth=1;spacing=0;fillColor=#B2C9AB;strokeColor=#788AA3;fontColor=#46495D;rounded=1;" vertex="1" parent="WIyWlLk6GJQsqaUBKTNV-1">
          <mxGeometry x="56" y="404" width="160" height="80" as="geometry">
            <mxRectangle x="230" y="140" width="160" height="26" as="alternateBounds" />
          </mxGeometry>
        </mxCell>
        <mxCell id="whpVxYnDkCTskXmKhdl8-74" value="CompoundBaseUnit" style="swimlane;fontStyle=1;align=center;verticalAlign=top;childLayout=stackLayout;horizontal=1;startSize=26;horizontalStack=0;resizeParent=1;resizeLast=0;collapsible=1;marginBottom=0;shadow=0;strokeWidth=1;spacing=0;fillColor=#B2C9AB;strokeColor=#788AA3;fontColor=#46495D;rounded=1;" vertex="1" parent="WIyWlLk6GJQsqaUBKTNV-1">
          <mxGeometry x="536" y="404" width="160" height="80" as="geometry">
            <mxRectangle x="230" y="140" width="160" height="26" as="alternateBounds" />
          </mxGeometry>
        </mxCell>
        <mxCell id="whpVxYnDkCTskXmKhdl8-90" value="components:&#xa;   Set[PoweredBaseUnit]" style="text;strokeColor=none;fillColor=none;align=left;verticalAlign=top;spacingLeft=4;spacingRight=4;overflow=hidden;rotatable=0;points=[[0,0.5],[1,0.5]];portConstraint=eastwest;rounded=1;fontColor=#46495D;fontSize=12;" vertex="1" parent="whpVxYnDkCTskXmKhdl8-74">
          <mxGeometry y="26" width="160" height="44" as="geometry" />
        </mxCell>
        <mxCell id="whpVxYnDkCTskXmKhdl8-61" value="CompoundUnit" style="swimlane;fontStyle=1;align=center;verticalAlign=top;childLayout=stackLayout;horizontal=1;startSize=26;horizontalStack=0;resizeParent=1;resizeLast=0;collapsible=1;marginBottom=0;shadow=0;strokeWidth=1;spacing=0;fillColor=#B2C9AB;strokeColor=#788AA3;fontColor=#46495D;rounded=1;" vertex="1" parent="WIyWlLk6GJQsqaUBKTNV-1">
          <mxGeometry x="536" y="244" width="160" height="80" as="geometry">
            <mxRectangle x="230" y="140" width="160" height="26" as="alternateBounds" />
          </mxGeometry>
        </mxCell>
        <mxCell id="whpVxYnDkCTskXmKhdl8-63" value="components:&#xa;   Set[PoweredUnit]" style="text;strokeColor=none;fillColor=none;align=left;verticalAlign=top;spacingLeft=4;spacingRight=4;overflow=hidden;rotatable=0;points=[[0,0.5],[1,0.5]];portConstraint=eastwest;rounded=1;fontColor=#46495D;" vertex="1" parent="whpVxYnDkCTskXmKhdl8-61">
          <mxGeometry y="26" width="160" height="44" as="geometry" />
        </mxCell>
        <mxCell id="whpVxYnDkCTskXmKhdl8-81" value="BaseUnit(ABC)" style="swimlane;fontStyle=3;align=center;verticalAlign=top;childLayout=stackLayout;horizontal=1;startSize=26;horizontalStack=0;resizeParent=1;resizeLast=0;collapsible=1;marginBottom=0;shadow=0;strokeWidth=1;spacing=0;fillColor=#B2C9AB;strokeColor=#788AA3;fontColor=#46495D;rounded=1;" vertex="1" parent="WIyWlLk6GJQsqaUBKTNV-1">
          <mxGeometry x="296" y="564" width="160" height="80" as="geometry">
            <mxRectangle x="230" y="140" width="160" height="26" as="alternateBounds" />
          </mxGeometry>
        </mxCell>
      </root>
    </mxGraphModel>
  </diagram>
</mxfile>
